<svg width="514" height="513" viewBox="0 0 514 513" fill="none" xmlns="http://www.w3.org/2000/svg">
<path d="M1.03027 45.0532C1.03027 20.2004 21.1775 0.0532227 46.0303 0.0532227H196.009C220.862 0.0532227 241.009 20.2004 241.009 45.0532V196C241.009 220.853 220.862 241 196.009 241H46.0302C21.1774 241 1.03027 220.853 1.03027 196V45.0532Z" fill="#757F9A" fill-opacity="0.64"/>
<path d="M273.035 45.0532C273.035 20.2004 293.182 0.0532227 318.035 0.0532227H468.051C492.904 0.0532227 513.051 20.2004 513.051 45.0532V196C513.051 220.853 492.904 241 468.051 241H318.035C293.182 241 273.035 220.853 273.035 196V45.0532Z" fill="#757F9A" fill-opacity="0.64"/>
<path d="M273.015 316.106C273.015 291.254 293.162 271.106 318.015 271.106H468.03C492.883 271.106 513.03 291.254 513.03 316.106V467.053C513.03 491.906 492.883 512.053 468.03 512.053H318.015C293.162 512.053 273.015 491.906 273.015 467.053V316.106Z" fill="#757F9A" fill-opacity="0.64"/>
<path d="M0.993164 316.106C0.993164 291.254 21.1404 271.106 45.9932 271.106H196.009C220.862 271.106 241.009 291.254 241.009 316.106V467.053C241.009 491.906 220.862 512.053 196.009 512.053H45.9932C21.1404 512.053 0.993164 491.906 0.993164 467.053V316.106Z" fill="#757F9A" fill-opacity="0.64"/>
<rect x="329.28" y="137.828" width="29.9657" height="120.421" rx="14.9829" transform="rotate(-90 329.28 137.828)" fill="#EFEFEF"/>
<rect x="102.484" y="62.6348" width="29.9657" height="120.421" rx="14.9829" fill="#EFEFEF"/>
<rect x="57.2568" y="137.828" width="29.9657" height="120.421" rx="14.9829" transform="rotate(-90 57.2568 137.828)" fill="#EFEFEF"/>
<rect x="329.26" y="379.915" width="30.0085" height="120.421" rx="15" transform="rotate(-90 329.26 379.915)" fill="#EFEFEF"/>
<rect x="329.26" y="439.89" width="29.9652" height="120.421" rx="14.9826" transform="rotate(-90 329.26 439.89)" fill="#EFEFEF"/>
<rect x="64.2969" y="362.448" width="29.9657" height="120.421" rx="14.9829" transform="rotate(-45 64.2969 362.448)" fill="#EFEFEF"/>
<rect x="85.4854" y="447.598" width="29.9657" height="120.421" rx="14.9829" transform="rotate(-135 85.4854 447.598)" fill="#EFEFEF"/>
</svg>
